<?xml version="1.0" encoding="UTF-8"?>
<svg width="144px" height="144px" viewBox="0 0 144 144" version="1.1" xmlns="http://www.w3.org/2000/svg">
    <g stroke="none" stroke-width="1" fill="none" fill-rule="evenodd">
        <circle fill="#2D2D2D" cx="72" cy="72" r="72"/>
        <path d="M72,36 C74.209139,36 76,37.790861 76,40 L76,64 L84,64 C86.209139,64 88,65.790861 88,68 L88,80 C88,94.8 76.8,108 62,108 L60,108 C45.2,108 34,96.8 34,82 L34,68 C34,65.790861 35.790861,64 38,64 L46,64 L46,52 C46,49.790861 47.790861,48 50,48 C52.209139,48 54,49.790861 54,52 L54,64 L62,64 L62,40 C62,37.790861 63.790861,36 66,36 C68.209139,36 70,37.790861 70,40 L70,64 L70,40 C70,37.790861 71.790861,36 74,36 L72,36 Z" fill="#FFFFFF" fill-rule="nonzero"/>
    </g>
</svg> 