<?xml version="1.0" encoding="UTF-8"?>
<svg width="144px" height="144px" viewBox="0 0 144 144" version="1.1" xmlns="http://www.w3.org/2000/svg">
    <g stroke="none" stroke-width="1" fill="none" fill-rule="evenodd">
        <circle fill="#C0392B" cx="72" cy="72" r="72"/>
        <path d="M84.4142136,58.5857864 C85.1952621,57.8047379 86.4615921,57.8047379 87.2426407,58.5857864 L99.2426407,70.5857864 C99.6331544,70.9763001 99.8497116,71.4880712 99.8497116,72 C99.8497116,72.5119288 99.6331544,73.0236999 99.2426407,73.4142136 L87.2426407,85.4142136 C86.4615921,86.1952621 85.1952621,86.1952621 84.4142136,85.4142136 C83.6331651,84.6331651 83.6331651,83.3668349 84.4142136,82.5857864 L92,75 L52,75 C50.8954305,75 50,74.1045695 50,73 C50,71.8954305 50.8954305,71 52,71 L92,71 L84.4142136,63.4142136 C83.6331651,62.6331651 83.6331651,61.3668349 84.4142136,60.5857864 L84.4142136,58.5857864 Z M44,40 C46.209139,40 48,41.790861 48,44 L48,100 C48,102.209139 46.209139,104 44,104 C41.790861,104 40,102.209139 40,100 L40,44 C40,41.790861 41.790861,40 44,40 Z" fill="#FFFFFF" fill-rule="nonzero"/>
    </g>
</svg> 