<?xml version="1.0" encoding="UTF-8"?>
<svg width="144px" height="144px" viewBox="0 0 144 144" version="1.1" xmlns="http://www.w3.org/2000/svg">
    <g stroke="none" stroke-width="1" fill="none" fill-rule="evenodd">
        <circle fill="#2D2D2D" cx="72" cy="72" r="72"/>
        <path d="M72,40 C78.6274169,40 84,45.372583 84,52 L84,76 C84,82.627417 78.6274169,88 72,88 C65.372583,88 60,82.627417 60,76 L60,52 C60,45.372583 65.372583,40 72,40 Z M48,72 L48,76 C48,86.5 56.5,95 67,96.8 L67,104 L57,104 C55.3431458,104 54,105.343146 54,107 C54,108.656854 55.3431458,110 57,110 L87,110 C88.6568542,110 90,108.656854 90,107 C90,105.343146 88.6568542,104 87,104 L77,104 L77,96.8 C87.5,95 96,86.5 96,76 L96,72 C96,70.3431458 94.6568542,69 93,69 C91.3431458,69 90,70.3431458 90,72 L90,76 C90,84.8 82.8,92 74,92 L70,92 C61.2,92 54,84.8 54,76 L54,72 C54,70.3431458 52.6568542,69 51,69 C49.3431458,69 48,70.3431458 48,72 Z" fill="#FFFFFF" fill-rule="nonzero"/>
    </g>
</svg> 