<?xml version="1.0" encoding="UTF-8"?>
<svg width="144" height="144" viewBox="0 0 144 144" xmlns="http://www.w3.org/2000/svg">
    <!-- Red circle background -->
    <circle cx="72" cy="72" r="60" fill="#FF4444"/>
    
    <!-- Microphone icon (white) -->
    <path d="M72 84c8.284 0 15-6.716 15-15V39c0-8.284-6.716-15-15-15-8.284 0-15 6.716-15 15v30c0 8.284 6.716 15 15 15zm25-15c0 13.807-11.193 25-25 25s-25-11.193-25-25H37c0 16.781 13.019 30.593 29.5 31.859V111h11v-10.141C94.981 99.593 108 85.781 108 69H97z" fill="white"/>
    
    <!-- Diagonal line for muted state -->
    <line x1="36" y1="108" x2="108" y2="36" stroke="white" stroke-width="8"/>
</svg> 