<?xml version="1.0" encoding="UTF-8"?>
<svg width="144px" height="144px" viewBox="0 0 144 144" version="1.1" xmlns="http://www.w3.org/2000/svg">
    <g stroke="none" stroke-width="1" fill="none" fill-rule="evenodd">
        <circle fill="#2ECC71" cx="72" cy="72" r="72"/>
        <g transform="translate(48, 40)" fill="#FFFFFF" fill-rule="nonzero">
            <path d="M24,0 C30.6274169,0 36,5.372583 36,12 L36,36 C36,42.627417 30.6274169,48 24,48 C17.372583,48 12,42.627417 12,36 L12,12 C12,5.372583 17.372583,0 24,0 Z"/>
            <path d="M0,32 L0,36 C0,46.5 8.5,55 19,56.8 L19,64 L9,64 C7.3431458,64 6,65.343146 6,67 C6,68.656854 7.3431458,70 9,70 L39,70 C40.6568542,70 42,68.656854 42,67 C42,65.343146 40.6568542,64 39,64 L29,64 L29,56.8 C39.5,55 48,46.5 48,36 L48,32 C48,30.343146 46.6568542,29 45,29 C43.3431458,29 42,30.343146 42,32 L42,36 C42,44.8 34.8,52 26,52 L22,52 C13.2,52 6,44.8 6,36 L6,32 C6,30.343146 4.6568542,29 3,29 C1.3431458,29 0,30.343146 0,32 Z"/>
        </g>
    </g>
</svg> 