<?xml version="1.0" encoding="UTF-8"?>
<svg width="144px" height="144px" viewBox="0 0 144 144" version="1.1" xmlns="http://www.w3.org/2000/svg">
    <g stroke="none" stroke-width="1" fill="none" fill-rule="evenodd">
        <circle fill="#2ECC71" cx="72" cy="72" r="72"/>
        <path d="M40,52 C40,48.6862915 42.6862915,46 46,46 L82,46 C85.3137085,46 88,48.6862915 88,52 L88,92 C88,95.3137085 85.3137085,98 82,98 L46,98 C42.6862915,98 40,95.3137085 40,92 L40,52 Z M96,61.7573593 L104.656854,53.1005051 C105.447674,52.309685 106.723492,52.309685 107.514312,53.1005051 C107.827446,53.4136385 108,53.8278199 108,54.2573593 L108,89.7426407 C108,90.6370702 107.276142,91.3609281 106.381713,91.3609281 C105.952173,91.3609281 105.537992,91.1883741 105.224858,90.8752407 L96.5680338,82.2183864 C96.2088474,81.8592 96,81.3748325 96,80.8685815 L96,61.7573593 Z" fill="#FFFFFF" fill-rule="nonzero"/>
    </g>
</svg> 